<svg xmlns="http://www.w3.org/2000/svg" viewBox="14.0625 24.8262 121.9 111.1">
  <path d="M 125.784 35.0369 C 113.039 22.2916 92.9859 21.3682 79.1227 32.8994 C 79.1062 32.9135 77.318 34.3807 75 34.3807 C 72.6234 34.3807 70.9266 32.9416 70.8609 32.8853 C 57.0141 21.3682 36.9609 22.2916 24.2156 35.0369 C 17.6695 41.583 14.0625 50.2877 14.0625 59.5478 C 14.0625 68.808 17.6695 77.5127 24.0914 83.9228 L 64.3078 131.006 C 66.9844 134.14 70.882 135.938 75 135.938 C 79.1203 135.938 83.0156 134.14 85.6922 131.009 L 125.782 84.0611 C 139.301 70.5447 139.301 48.5533 125.784 35.0369 Z Z" fill="#fff"/>
</svg>
